<?xml version="1.0" standalone="no"?>
<!DOCTYPE svg PUBLIC "-//W3C//DTD SVG 20010904//EN"
 "http://www.w3.org/TR/2001/REC-SVG-20010904/DTD/svg10.dtd">
<svg version="1.0" xmlns="http://www.w3.org/2000/svg"
 width="1000.000000pt" height="1000.000000pt" viewBox="0 0 1000.000000 1000.000000"
 preserveAspectRatio="xMidYMid meet">
<metadata>
Created by potrace 1.14, written by Peter Selinger 2001-2017
</metadata>
<g transform="translate(0.000000,1000.000000) scale(0.100000,-0.100000)"
fill="#000000" stroke="none">
<path d="M843 8796 c16 -9 64 -43 108 -76 43 -33 83 -60 88 -60 5 0 16 -8 23
-18 7 -11 22 -24 34 -30 36 -19 197 -161 252 -223 30 -32 60 -59 69 -59 8 0
27 -12 42 -27 15 -16 43 -41 62 -56 318 -257 609 -519 609 -548 0 -35 -23 -41
-127 -30 -54 6 -115 14 -135 17 -51 8 -49 -8 5 -36 23 -12 71 -38 107 -57 75
-40 98 -52 160 -83 138 -69 141 -71 138 -93 -2 -14 -14 -24 -38 -30 -19 -5
-37 -12 -40 -16 -3 -4 -25 -13 -50 -20 -108 -33 -186 -80 -263 -159 -42 -42
-89 -94 -105 -114 -16 -21 -39 -48 -50 -60 -30 -34 -73 -84 -131 -158 -29 -36
-67 -72 -84 -81 -36 -19 -87 -64 -87 -77 0 -4 19 -19 43 -32 23 -13 85 -49
137 -80 52 -31 111 -64 130 -74 19 -9 127 -70 240 -135 113 -65 374 -214 580
-332 206 -117 433 -246 504 -286 71 -41 136 -71 143 -68 19 7 1600 1223 1609
1236 3 6 -1 18 -9 27 -8 9 -38 64 -66 122 -58 115 -98 175 -160 235 -23 21
-41 43 -41 48 0 5 15 7 33 5 27 -2 31 0 29 16 -3 14 1 17 12 13 9 -4 16 -2 16
3 0 31 250 12 305 -24 12 -8 54 -61 91 -118 37 -57 69 -105 70 -107 2 -2 17 7
33 19 39 27 39 46 2 173 -31 107 -29 111 37 80 34 -15 87 -63 117 -106 11 -16
15 -15 54 14 27 19 47 27 54 22 70 -52 153 -124 174 -151 l25 -34 -41 -42
c-22 -23 -41 -45 -41 -49 0 -3 14 -22 31 -41 17 -20 66 -86 110 -148 168 -239
205 -275 367 -358 45 -23 87 -50 93 -62 12 -22 13 -21 -19 -37 -28 -15 -19
-33 14 -27 14 3 22 1 19 -5 -6 -8 26 -14 50 -9 5 1 1 -8 -9 -19 -11 -12 -16
-21 -11 -21 4 0 16 10 26 22 11 11 22 18 26 14 4 -3 -2 -13 -13 -21 -18 -13
-17 -14 13 -21 29 -6 32 -10 27 -31 -6 -21 -4 -24 16 -21 13 1 25 -3 27 -9 3
-7 -3 -13 -12 -13 -9 0 -13 -5 -10 -11 4 -6 13 -8 21 -5 8 3 13 2 13 -2 -1 -4
2 -22 6 -39 5 -24 13 -33 27 -33 13 0 18 -5 15 -14 -7 -17 19 -24 107 -33 33
-3 62 -7 64 -8 9 -8 -155 -65 -188 -65 -78 0 -236 21 -334 45 -156 38 -194 66
-478 353 -137 137 -248 246 -249 243 -1 -3 0 -20 1 -37 1 -20 -4 -33 -14 -37
-8 -3 -22 -23 -31 -43 -8 -20 -18 -35 -21 -32 -3 4 -20 -9 -39 -27 -18 -19
-36 -31 -39 -28 -3 4 -6 1 -6 -5 0 -7 -7 -12 -15 -12 -8 0 -15 -5 -15 -11 0
-8 -11 -9 -31 -5 -26 5 -30 3 -25 -10 4 -11 2 -15 -8 -11 -47 18 10 -77 87
-145 12 -11 15 -16 6 -11 -25 12 -157 158 -136 150 10 -4 16 -3 12 2 -21 34
-60 -4 -409 -389 -197 -217 -570 -630 -829 -916 l-472 -522 -113 109 -114 109
-26 -18 c-36 -25 -137 -80 -249 -136 -51 -26 -93 -51 -93 -55 0 -5 39 -14 88
-21 174 -24 359 -60 306 -60 -5 0 -92 -16 -194 -35 -302 -57 -744 -120 -787
-112 -12 2 -24 0 -25 -5 -2 -5 -46 -13 -98 -19 -98 -10 -612 -29 -619 -23 -11
10 17 15 199 38 209 28 412 73 495 111 55 25 151 94 253 182 40 36 62 49 62
39 0 -9 8 -16 17 -16 16 0 134 52 358 160 66 31 137 63 157 71 l38 13 -23 24
c-12 13 -124 123 -249 243 -189 183 -231 219 -250 215 -13 -3 -113 -13 -223
-22 -276 -23 -662 -15 -820 16 -169 33 -345 88 -345 107 0 5 58 9 128 10 70 1
147 7 172 12 212 46 284 64 345 85 106 37 207 67 211 63 3 -3 -62 -47 -151
-102 -16 -10 -25 -20 -19 -22 12 -4 185 57 259 92 28 12 71 33 98 45 26 12 47
25 47 29 0 3 -82 85 -182 181 -100 96 -285 275 -411 398 l-229 223 -27 -31
c-14 -16 -36 -42 -48 -57 -12 -16 -53 -64 -90 -109 -37 -45 -86 -105 -108
-134 -22 -29 -48 -61 -57 -72 -10 -10 -18 -22 -18 -26 0 -5 -9 -17 -20 -27
-11 -10 -20 -24 -20 -32 0 -7 -4 -13 -8 -13 -9 0 -65 -73 -98 -129 -12 -19
-27 -37 -33 -39 -6 -2 -11 -8 -11 -14 0 -5 -19 -37 -43 -71 -23 -34 -46 -69
-52 -79 -5 -9 -32 -47 -58 -84 -27 -37 -53 -77 -57 -88 -4 -12 -17 -30 -27
-41 -10 -11 -29 -42 -42 -70 -13 -27 -27 -52 -30 -55 -4 -3 -27 -41 -51 -85
-23 -44 -47 -83 -52 -86 -26 -17 5 -834 33 -864 5 -5 9 -19 9 -32 0 -46 53
-348 61 -351 5 -2 9 -11 9 -20 0 -24 43 -196 50 -202 4 -3 17 -45 29 -95 13
-49 30 -106 40 -125 10 -19 26 -63 36 -97 10 -35 22 -63 25 -63 4 0 13 -19 19
-42 7 -24 28 -74 46 -113 19 -38 39 -87 46 -107 7 -21 16 -38 20 -38 4 0 17
-27 29 -60 12 -33 26 -60 31 -60 5 0 9 -5 9 -10 0 -13 42 -103 51 -110 4 -3
18 -27 32 -55 13 -27 39 -75 56 -105 17 -30 33 -63 37 -72 3 -10 10 -18 14
-18 4 0 20 -24 35 -52 15 -29 38 -66 51 -81 13 -16 24 -33 24 -39 0 -6 7 -18
15 -27 9 -9 53 -66 98 -127 46 -61 93 -121 105 -134 12 -13 22 -27 22 -32 0
-4 21 -29 48 -56 26 -26 67 -74 92 -106 53 -70 352 -373 425 -431 28 -21 62
-51 76 -65 15 -14 43 -36 64 -50 21 -14 50 -37 64 -52 14 -16 30 -28 35 -28 5
0 30 -17 55 -38 25 -21 74 -58 108 -81 34 -23 63 -45 65 -50 2 -4 15 -14 29
-22 31 -17 166 -99 229 -140 25 -16 61 -36 80 -45 19 -9 37 -19 40 -23 13 -16
305 -163 380 -191 36 -13 67 -27 70 -31 3 -3 34 -17 70 -30 36 -12 74 -28 85
-35 11 -7 40 -18 65 -24 25 -7 59 -18 75 -25 17 -8 64 -23 105 -35 41 -11 91
-27 110 -35 19 -7 78 -23 130 -35 52 -12 104 -25 115 -30 23 -10 154 -36 230
-45 28 -4 59 -10 70 -15 24 -10 167 -26 368 -41 303 -23 1112 8 1125 42 2 5
14 9 27 9 39 0 313 49 332 59 10 5 61 19 113 31 52 12 110 28 129 37 19 8 50
17 70 20 30 4 42 -1 78 -31 22 -20 46 -36 52 -36 5 0 14 -6 18 -14 4 -8 26
-24 48 -37 22 -13 58 -37 81 -54 22 -17 56 -37 75 -44 61 -23 83 -33 134 -59
44 -23 65 -27 175 -30 71 -3 161 1 208 8 l84 12 87 92 c105 109 161 171 161
179 0 3 10 17 23 30 33 34 68 77 100 120 l28 39 -24 36 c-45 69 -85 147 -92
182 -4 19 -11 40 -15 45 -33 43 -36 325 -5 388 8 17 15 35 15 41 0 16 43 150
50 156 3 3 13 23 21 45 12 33 13 49 3 93 -7 29 -19 67 -27 85 -8 17 -16 38
-18 44 -3 9 -19 3 -49 -17 -41 -28 -50 -30 -105 -24 -171 17 -326 61 -485 137
-89 43 -144 76 -291 174 -115 77 -132 85 -205 98 -43 8 -105 14 -137 15 -56 0
-58 -1 -74 -35 -9 -19 -19 -35 -23 -35 -3 0 -19 26 -34 57 -78 160 -374 558
-547 735 -31 32 -61 58 -67 58 -9 0 2 -46 42 -167 5 -14 3 -23 -3 -23 -6 0
-11 5 -11 10 0 10 -67 114 -104 161 -76 95 -100 123 -176 199 -85 85 -189 171
-222 183 -29 10 -27 1 31 -152 11 -30 19 -56 17 -58 -2 -2 -30 27 -62 64 -151
174 -241 266 -279 283 -53 24 -263 107 -295 115 -14 4 -29 11 -35 15 -14 10
-257 91 -405 135 -69 21 -153 46 -188 56 -34 11 -97 28 -140 39 -126 31 -224
58 -228 63 -10 9 154 20 356 23 118 1 217 4 220 6 3 2 -13 28 -35 58 -22 30
-43 60 -48 67 -9 14 78 -14 141 -46 58 -29 61 -27 21 17 -74 77 -94 145 -68
221 11 31 9 35 -27 73 -42 43 -223 202 -263 230 l-24 17 39 48 c22 26 52 65
68 86 28 38 195 210 231 237 59 45 127 90 185 122 36 20 89 57 119 83 212 182
496 319 756 367 95 17 494 17 600 0 156 -26 278 -75 425 -170 30 -20 57 -38
60 -42 3 -3 16 -14 29 -23 18 -12 20 -17 10 -20 -8 -2 -44 -13 -81 -25 l-67
-20 -128 65 c-146 74 -293 134 -373 153 -30 7 -59 16 -65 20 -18 13 -59 19
-69 11 -6 -4 -33 -16 -61 -26 -65 -24 -290 -139 -327 -168 -131 -100 -298
-250 -298 -268 0 -4 34 6 76 22 86 31 241 59 330 59 60 -1 140 -13 150 -23 3
-3 -1 -47 -10 -98 -19 -108 -20 -213 -5 -400 35 -444 119 -758 304 -1131 63
-127 75 -150 140 -263 60 -105 233 -375 310 -483 44 -63 87 -123 95 -136 38
-56 161 -214 184 -235 l25 -23 82 22 c138 37 211 77 364 201 39 31 84 71 102
89 28 28 30 34 17 47 -8 8 -14 22 -14 31 0 10 -7 27 -15 39 -49 69 -147 350
-165 472 -19 125 -4 312 30 386 5 11 19 45 30 75 18 50 113 205 165 270 62 76
213 218 235 222 19 2 26 10 29 33 5 42 -17 223 -40 331 -26 122 -114 364 -160
439 -18 30 -19 31 -111 33 -179 5 -325 52 -483 158 -47 31 -85 57 -85 58 0 0
125 1 278 1 l277 0 119 33 c65 19 164 52 220 74 56 22 146 57 201 78 55 21
107 41 116 44 15 7 15 2 3 -51 -18 -78 -32 -246 -44 -548 -10 -254 -20 -352
-45 -447 -7 -29 -12 -54 -10 -56 2 -2 15 4 30 14 92 60 222 122 265 126 l35 3
44 130 c41 119 45 140 49 252 5 145 -10 263 -45 353 -14 36 -28 68 -32 72 -7
8 -81 -27 -193 -91 l-56 -32 13 51 c19 73 68 170 105 208 17 18 50 42 73 55
91 48 381 19 627 -64 170 -58 220 -85 238 -131 16 -41 32 -50 32 -18 0 11 6
20 13 20 50 0 306 -136 400 -213 126 -103 182 -179 207 -279 10 -39 9 -51 -8
-89 -51 -112 -71 -159 -66 -159 33 0 177 118 202 167 15 27 16 110 2 118 -5 3
-10 17 -10 31 0 13 -4 24 -9 24 -5 0 -12 14 -16 30 -4 17 -11 30 -16 30 -5 0
-9 4 -9 9 0 20 -62 109 -91 130 -24 18 -29 29 -29 64 0 23 7 67 15 97 45 171
62 230 68 236 4 4 7 18 7 30 0 13 4 25 9 28 5 3 12 17 15 32 18 72 125 282
149 292 4 2 7 16 7 31 0 25 28 72 74 124 9 9 16 19 16 22 0 9 53 88 90 135 60
75 67 92 75 175 8 92 2 113 -52 185 -80 107 -205 174 -407 216 -204 42 -244
46 -476 48 -207 1 -228 -1 -265 -19 -26 -13 -48 -35 -63 -61 l-22 -42 -81 -7
c-44 -4 -82 -5 -85 -2 -11 11 70 138 114 179 49 46 183 120 239 132 18 4 35
12 39 17 18 30 -178 -38 -323 -113 -161 -83 -279 -117 -435 -125 -74 -4 -108
-3 -108 5 0 6 14 14 32 17 53 12 218 81 303 127 44 24 102 53 128 64 l49 21
-55 6 c-29 4 -77 17 -106 28 l-52 22 -71 -21 c-50 -14 -76 -18 -84 -11 -9 7
-19 7 -33 0 -11 -6 -37 -11 -58 -11 -22 0 -43 -4 -49 -9 -5 -5 -36 -11 -70
-14 l-60 -4 -12 146 c-12 152 -31 231 -96 414 -43 119 -53 137 -71 137 -19 0
-19 -2 10 -88 14 -40 34 -136 45 -212 17 -119 19 -155 10 -245 -14 -157 -5
-149 -174 -142 -77 2 -187 13 -243 22 l-103 18 -102 101 c-57 56 -128 120
-158 142 -109 80 -146 105 -195 136 -27 17 -72 45 -100 63 -82 52 -233 139
-349 200 -60 31 -116 61 -125 66 -9 5 -37 18 -63 29 l-47 19 -19 -23 c-10 -13
-52 -60 -93 -105 l-74 -80 -56 14 c-30 8 -87 18 -125 22 l-69 8 147 115 c92
73 142 118 135 122 -7 5 -34 17 -62 27 -27 11 -101 42 -164 70 -66 29 -117 47
-121 41 -3 -5 -37 -23 -75 -39 -93 -38 -185 -84 -265 -131 -100 -59 -138 -80
-168 -90 l-27 -10 30 26 c39 33 139 110 243 187 46 34 110 83 142 110 l58 47
153 0 c131 0 398 -23 544 -46 67 -11 32 6 -64 31 -50 13 -95 26 -99 29 -4 2
-65 16 -136 31 -72 14 -137 30 -146 35 -9 5 -104 16 -211 25 -248 22 -288 15
-411 -71 -26 -19 -53 -34 -60 -34 -7 0 -56 17 -108 37 l-95 37 -230 6 -229 5
-27 75 c-14 41 -41 120 -60 175 -38 114 -36 112 -204 199 -49 25 -94 49 -100
54 -20 15 -235 95 -241 89 -13 -12 9 -27 40 -27 30 0 287 -122 326 -154 8 -7
34 -24 58 -36 52 -29 90 -101 126 -240 14 -52 28 -104 32 -114 7 -19 1 -19
-228 -13 -204 5 -241 8 -279 25 -24 11 -89 40 -144 65 -213 96 -173 81 -485
189 -146 51 -370 118 -390 118 -8 0 50 -23 130 -50 80 -27 154 -54 165 -59 11
-6 67 -31 125 -56 58 -26 123 -55 145 -65 108 -49 226 -100 233 -100 4 0 18
-9 31 -19 l23 -18 -55 -6 c-69 -7 -375 7 -607 27 -96 9 -201 17 -232 20 -50 4
-191 49 -240 76 -10 6 -48 21 -85 34 -38 13 -117 43 -178 66 -267 100 -521
182 -775 249 -58 15 -112 31 -120 34 -8 3 -31 10 -50 16 -25 6 -29 9 -12 10
12 1 22 5 22 9 0 11 -158 40 -292 54 -62 6 -115 14 -118 18 -3 4 -43 10 -90
14 -80 6 -83 6 -57 -8z m440 -73 c-7 -2 -19 -2 -25 0 -7 3 -2 5 12 5 14 0 19
-2 13 -5z m4361 -1239 c16 -19 26 -37 24 -40 -5 -4 -95 11 -128 22 -10 4 -6
11 15 29 40 32 54 30 89 -11z m256 -205 c58 -6 163 -24 233 -41 l129 -31 -7
-31 c-4 -17 -9 -92 -12 -167 l-4 -136 37 -58 c59 -93 153 -180 211 -194 81
-22 80 -21 59 -33 -24 -13 -134 -3 -234 23 -103 27 -190 68 -242 115 -39 35
-132 145 -170 200 -8 12 -37 52 -65 89 -27 37 -72 97 -99 133 -27 37 -64 83
-82 102 -19 20 -34 39 -34 44 0 8 96 3 280 -15z m815 -353 c21 -15 25 -67 5
-90 -28 -35 -90 -4 -90 44 0 18 8 34 22 44 27 20 39 20 63 2z m-4764 -233 c8
-9 9 -14 2 -10 -13 8 -63 -12 -63 -25 0 -4 -12 -8 -26 -8 -26 0 -26 0 11 30
43 34 57 37 76 13z m282 -10 c-13 -2 -35 -2 -50 0 -16 2 -5 4 22 4 28 0 40 -2
28 -4z m-208 -24 c-70 -9 -95 -6 -95 8 0 4 37 6 82 4 l83 -4 -70 -8z m6059
-136 c4 -4 37 -13 74 -19 72 -12 319 -127 401 -185 123 -89 236 -225 295 -354
55 -119 157 -447 144 -460 -6 -6 -193 55 -338 110 -102 39 -200 75 -515 187
-57 21 -230 111 -321 168 -22 14 -74 2 -299 -65 -118 -36 -269 -66 -366 -74
l-86 -7 -124 -84 c-68 -45 -137 -94 -152 -106 -50 -42 -100 -24 -54 18 45 42
72 64 140 113 l69 50 -74 7 c-77 7 -273 43 -289 54 -5 3 10 19 33 36 24 17 75
59 113 92 39 34 82 71 97 83 15 11 25 23 22 26 -3 3 0 8 7 13 8 4 10 3 5 -4
-12 -19 3 -14 65 24 51 31 74 37 170 50 223 29 427 80 573 141 59 25 206 102
239 125 28 20 134 67 153 68 6 0 14 -3 18 -7z m-1934 -23 c0 -5 -7 -7 -15 -4
-8 4 -15 8 -15 10 0 2 7 4 15 4 8 0 15 -4 15 -10z m-3498 -130 c43 -38 20 -39
-34 0 -33 24 -37 30 -20 30 12 0 36 -13 54 -30z m5194 -535 c66 -32 138 -94
161 -138 21 -41 13 -41 -29 -3 -49 45 -131 91 -197 110 -113 33 -297 15 -436
-43 -47 -20 -49 -20 -27 -2 12 11 59 34 105 51 175 67 319 76 423 25z m-7088
-922 c-10 -2 -28 -2 -40 0 -13 2 -5 4 17 4 22 1 32 -1 23 -4z m369 -1185 c-3
-8 -6 -5 -6 6 -1 11 2 17 5 13 3 -3 4 -12 1 -19z m-230 -720 c-3 -7 -5 -2 -5
12 0 14 2 19 5 13 2 -7 2 -19 0 -25z"/>
<path d="M8081 6504 c3 -5 18 -35 34 -67 l29 -57 -63 -63 c-58 -57 -109 -132
-97 -144 2 -3 11 9 20 25 18 34 102 112 122 112 7 0 18 -8 24 -17 9 -15 10
-13 7 12 -3 19 2 39 14 56 l19 27 -30 37 c-17 21 -30 41 -30 44 0 3 -12 15
-27 25 -14 10 -24 15 -22 10z"/>
<path d="M4870 8745 c0 -8 3 -15 8 -16 27 -4 72 -6 70 -3 -2 2 -21 10 -41 19
-33 14 -37 14 -37 0z"/>
<path d="M5460 8678 c191 -94 283 -146 485 -276 106 -68 166 -112 280 -202 60
-47 168 -110 191 -110 8 0 -21 45 -44 69 -9 9 -31 32 -47 51 -33 38 -329 240
-410 281 -27 14 -85 44 -128 67 -43 22 -124 62 -180 87 -56 25 -111 50 -121
56 -36 21 -147 59 -169 59 -12 0 52 -37 143 -82z"/>
<path d="M5945 8170 l-50 -7 62 -1 c34 -1 65 3 68 8 7 11 -2 11 -80 0z"/>
<path d="M7068 7949 c25 -32 52 -58 118 -117 32 -30 77 -70 99 -91 22 -20 49
-43 60 -51 18 -14 19 -14 7 1 -10 14 -10 18 3 23 9 3 14 10 11 14 -3 5 0 9 7
9 33 2 78 10 82 15 3 3 0 10 -7 16 -19 15 -333 172 -345 172 -6 0 -16 7 -23
15 -7 8 -16 15 -21 15 -5 0 -1 -10 9 -21z"/>
<path d="M6970 7485 c42 -43 26 -46 -62 -10 -34 14 -71 25 -82 25 -20 0 -20
-2 4 -20 29 -23 146 -80 164 -80 7 0 23 11 35 24 l23 24 -49 36 c-61 45 -76
46 -33 1z"/>
<path d="M8450 7080 c0 -5 5 -10 11 -10 5 0 7 5 4 10 -3 6 -8 10 -11 10 -2 0
-4 -4 -4 -10z"/>
<path d="M5480 7051 c0 -5 -3 -18 -6 -28 -5 -15 -4 -15 5 -3 8 12 12 9 17 -17
4 -20 14 -33 26 -37 15 -3 19 -11 15 -25 -3 -14 0 -21 8 -21 8 0 17 -9 20 -20
4 -11 9 -19 13 -17 4 3 21 -18 39 -45 17 -26 28 -46 22 -43 -14 10 -11 -9 7
-31 15 -19 16 -19 10 1 -5 18 -4 17 14 -4 11 -13 20 -36 20 -52 0 -19 5 -29
15 -29 8 0 15 -3 15 -8 0 -4 14 -13 30 -20 17 -8 28 -18 24 -23 -3 -5 0 -9 7
-9 6 0 9 -8 6 -20 -3 -12 -1 -20 6 -19 22 4 47 -13 47 -32 0 -13 5 -17 18 -12
15 6 15 5 3 -10 -8 -10 -11 -20 -7 -24 3 -3 6 -1 6 5 0 7 5 12 11 12 6 0 9 -6
6 -14 -6 -15 18 -31 41 -27 10 2 12 -4 7 -19 -7 -21 -6 -21 20 -4 25 17 26 16
32 -4 6 -25 13 -27 32 -9 10 8 12 8 7 0 -3 -6 -2 -14 4 -18 5 -3 10 -1 10 4 0
6 16 11 35 11 19 0 35 4 35 9 0 5 -8 7 -18 4 -25 -6 -163 88 -235 162 -33 32
-113 131 -178 220 -66 88 -131 175 -145 193 -24 31 -44 42 -44 23z"/>
<path d="M5594 6811 c0 -12 6 -17 18 -13 14 3 16 7 7 18 -16 19 -25 17 -25 -5z"/>
<path d="M5234 6748 c3 -13 6 -27 6 -33 0 -5 4 -4 9 4 10 16 3 51 -11 51 -6 0
-8 -10 -4 -22z"/>
<path d="M5570 6516 c0 -2 8 -10 18 -17 15 -13 16 -12 3 4 -13 16 -21 21 -21
13z"/>
<path d="M6040 6420 c0 -5 5 -10 11 -10 5 0 7 5 4 10 -3 6 -8 10 -11 10 -2 0
-4 -4 -4 -10z"/>
<path d="M8681 4789 c-72 -131 -143 -238 -218 -331 l-54 -68 34 0 c19 0 39 -6
45 -12 38 -46 48 -415 17 -623 -9 -66 -21 -121 -26 -123 -5 -2 -9 -13 -9 -25
0 -44 22 2 60 126 54 173 92 410 89 549 -1 59 1 111 5 115 4 5 68 8 141 8
l133 0 6 57 c7 61 15 68 73 68 35 0 36 0 30 38 -10 58 -55 162 -93 212 -34 45
-110 103 -150 114 -18 6 -29 -8 -83 -105z"/>
<path d="M7352 2245 c-23 -35 -58 -82 -77 -105 -20 -24 -34 -45 -31 -47 6 -6
83 19 168 55 l65 27 -28 45 c-16 25 -29 49 -29 53 0 5 -6 14 -13 22 -12 11
-21 3 -55 -50z"/>
</g>
</svg>
