<?xml version="1.0" standalone="no"?>
<!DOCTYPE svg PUBLIC "-//W3C//DTD SVG 20010904//EN"
 "http://www.w3.org/TR/2001/REC-SVG-20010904/DTD/svg10.dtd">
<svg version="1.0" xmlns="http://www.w3.org/2000/svg"
 width="211.000000pt" height="211.000000pt" viewBox="0 0 211.000000 211.000000"
 preserveAspectRatio="xMidYMid meet">
<metadata>
Created by potrace 1.14, written by Peter Selinger 2001-2017
</metadata>
<g transform="translate(0.000000,211.000000) scale(0.100000,-0.100000)"
fill="#000000" stroke="none">
<path d="M923 2080 c-155 -22 -302 -76 -428 -158 -113 -74 -173 -128 -246
-220 -101 -126 -169 -271 -206 -436 -21 -96 -21 -318 0 -411 52 -231 177 -442
346 -582 127 -106 285 -182 456 -220 95 -21 317 -21 410 0 231 52 442 177 582
346 106 127 182 285 220 456 21 95 21 317 0 410 -52 231 -177 442 -346 582
-127 105 -290 184 -452 218 -87 19 -258 26 -336 15z m382 -50 c172 -47 321
-134 442 -260 93 -96 135 -154 179 -244 18 -38 39 -73 45 -76 6 -4 -7 -10 -30
-14 -69 -11 -111 -96 -111 -225 0 -93 14 -146 47 -178 21 -22 31 -25 74 -21
32 3 49 1 49 -6 0 -22 -40 -177 -54 -211 -8 -19 -22 -35 -30 -35 -8 0 -24 -17
-36 -38 -46 -82 -89 -75 -98 16 -3 38 -9 51 -23 55 -11 3 -16 1 -13 -5 9 -15
-44 -88 -65 -88 -28 0 -39 20 -43 75 -4 64 -25 70 -56 15 -24 -43 -67 -63 -83
-39 -5 8 -9 36 -9 62 0 40 -4 49 -22 56 -18 7 -25 3 -39 -23 -9 -17 -28 -39
-42 -50 -38 -28 -55 -9 -59 62 l-3 56 -60 24 c-123 49 -219 28 -262 -58 -29
-56 -29 -102 1 -165 57 -124 233 -212 545 -275 l135 -27 -70 -52 c-94 -69
-215 -127 -332 -158 -83 -22 -118 -26 -242 -26 -124 0 -159 4 -241 26 -346 91
-617 367 -699 709 -11 46 -20 96 -20 112 0 16 -3 27 -6 24 -10 -11 15 -221 35
-293 11 -39 18 -71 16 -73 -7 -7 -55 161 -66 231 -16 99 -6 292 20 396 92 369
407 664 786 737 106 20 338 12 440 -16z m-1161 -1376 c3 -8 2 -12 -4 -9 -6 3
-10 10 -10 16 0 14 7 11 14 -7z"/>
<path d="M1501 1447 c-44 -22 -76 -100 -79 -197 -6 -148 28 -220 106 -220 50
0 88 29 102 78 5 20 10 84 10 142 -1 171 -51 242 -139 197z"/>
</g>
</svg>
